<svg width="129" height="32" viewBox="0 0 129 32" fill="none" xmlns="http://www.w3.org/2000/svg">
<g filter="url(#filter0_d)">
<path fill-rule="evenodd" clip-rule="evenodd" d="M6.47155 23.747H11.3674V11.8951H14.6341L15.0667 7.81145H11.3674L11.3736 5.76738C11.3736 4.70225 11.4743 4.13135 13.0022 4.13135H15.0443V0.0465679H11.7771C7.85277 0.0465679 6.47211 2.02739 6.47211 5.35935V7.81201H4.0253V11.8957H6.47155V23.747ZM50.3608 11.2593C48.698 11.2593 48.3186 12.1722 48.3186 13.3028V13.9381H52.4007V13.3028C52.4007 12.1722 52.0213 11.2593 50.3608 11.2593ZM66.2762 11.6712C65.2778 11.6712 64.5581 11.9987 63.8283 12.3322V19.8805C64.5273 19.9471 64.928 19.9471 65.5912 19.9471C67.9877 19.9471 68.3162 18.8495 68.3162 17.317V13.7119C68.3162 12.5802 67.9406 11.6712 66.2762 11.6712ZM20.8827 20.4749C19.9514 20.4749 19.5294 20.0104 19.5294 19.116C19.5294 18.2165 19.9838 18.024 21.0181 18.024H23.2024V19.8145C23.1319 19.8469 23.0626 19.8792 22.9941 19.9111C22.3549 20.2092 21.785 20.4749 20.8827 20.4749ZM81.758 11.6712C80.0924 11.6712 79.5154 12.5802 79.5154 13.7119V17.8421C79.5154 18.9766 80.0924 19.8884 81.758 19.8884C83.419 19.8884 84.0005 18.9766 84.0005 17.8421V13.7119C83.9999 12.5802 83.4184 11.6712 81.758 11.6712ZM28.0994 23.7778H24.019L23.8427 22.7457C21.9796 23.7778 20.3168 23.9451 19.2199 23.9451C16.2274 23.9451 14.6347 21.9459 14.6347 19.1809C14.6347 15.9189 16.4933 14.7547 19.8182 14.7547H23.2024V14.0494C23.2024 12.3843 23.0116 11.8957 20.4512 11.8957H16.2649L16.674 7.81201H21.2498C26.8676 7.81201 28.0994 9.58686 28.0994 14.0825V23.7778ZM37.4848 11.6639C38.7065 11.6639 39.4358 11.7597 41.9749 12.1951V8.21388C39.7508 7.71294 38.3019 7.58141 37.0774 7.58141C31.8211 7.58141 29.7319 10.3509 29.7319 14.3478V17.2085C29.7319 21.202 31.8211 23.9664 37.0774 23.9664C38.3019 23.9664 39.7508 23.8354 41.9749 23.3367V19.3533C39.4358 19.7904 38.7065 19.8878 37.4848 19.8878C35.2904 19.8878 34.6272 19.4014 34.6272 17.5376V14.0119C34.6272 12.1481 35.2904 11.6639 37.4848 11.6639ZM57.296 17.2085H48.318V17.5376C48.318 19.4014 48.9818 19.8878 51.1756 19.8878C53.1479 19.8878 54.3517 19.7904 56.8863 19.3533V23.3367C54.4418 23.8354 53.168 23.9664 50.7699 23.9664C45.513 23.9664 43.4227 21.202 43.4227 17.2085V13.9375C43.4227 10.4432 44.9735 7.58141 50.3602 7.58141C55.7469 7.58141 57.296 10.4102 57.296 13.9375V17.2085ZM65.4256 23.9591C72.1078 23.9591 73.2109 21.1438 73.2109 17.284H73.2104V13.3033C73.2104 9.7766 72.3949 7.58197 67.5002 7.58197C66.2544 7.58197 64.8855 7.78179 63.8277 8.1747V0.456837L58.9336 1.27346V23.3373C61.597 23.747 63.0123 23.9591 65.4256 23.9591ZM88.8997 17.368C88.8997 20.6977 87.5252 23.9272 81.7742 23.9272C76.0204 23.9272 74.6201 20.6977 74.6201 17.368V14.153C74.6201 10.8216 76.0204 7.59149 81.7742 7.59149C87.5252 7.59149 88.8997 10.8216 88.8997 14.153V17.368ZM97.4518 23.9272C103.202 23.9272 104.578 20.6977 104.578 17.368V14.153C104.578 10.8216 103.202 7.59149 97.4518 7.59149C91.698 7.59149 90.2977 10.8216 90.2977 14.153V17.368C90.2977 20.6977 91.698 23.9272 97.4518 23.9272ZM120.667 23.747H115.362L110.876 16.2564V23.747H105.98V1.2729L110.876 0.456277V14.9243L115.362 7.81201H120.667L115.769 15.5735L120.667 23.747ZM95.1953 13.7119C95.1953 12.5802 95.7723 11.6712 97.435 11.6712C99.0955 11.6712 99.6831 12.5802 99.6831 13.7119V17.8421C99.6831 18.9766 99.0955 19.8884 97.435 19.8884C95.7723 19.8884 95.1953 18.9766 95.1953 17.8421V13.7119ZM123.462 20.9518C124.286 20.9518 124.943 21.624 124.943 22.4636C124.943 23.316 124.286 23.981 123.456 23.981C122.63 23.981 121.96 23.316 121.96 22.4636C121.96 21.624 122.63 20.9518 123.456 20.9518H123.462ZM122.248 22.4636C122.248 21.7584 122.791 21.1869 123.456 21.1869H123.462C124.132 21.1869 124.668 21.7589 124.668 22.4703C124.668 23.1817 124.132 23.7526 123.462 23.7459C122.792 23.7459 122.248 23.1817 122.248 22.4636ZM123.174 23.3435H122.905V21.6565L122.919 21.6546C123.055 21.6357 123.187 21.6173 123.382 21.6173C123.637 21.6173 123.804 21.671 123.907 21.7444C124.006 21.8188 124.059 21.9324 124.059 22.0931C124.059 22.3158 123.912 22.4496 123.731 22.5039V22.5168C123.879 22.5442 123.979 22.6774 124.013 22.9254C124.052 23.1879 124.093 23.288 124.119 23.3429H123.838C123.798 23.288 123.757 23.1341 123.724 22.9119C123.684 22.6975 123.576 22.617 123.361 22.617H123.175V23.3435H123.174ZM123.369 22.4099H123.174V21.8378C123.22 21.8317 123.281 21.825 123.369 21.825C123.67 21.825 123.777 21.9722 123.777 22.1199C123.777 22.3287 123.589 22.4099 123.369 22.4099Z" fill="white"/>
</g>
<defs>
<filter id="filter0_d" x="0.0252953" y="0.0465679" width="128.917" height="31.9344" filterUnits="userSpaceOnUse" color-interpolation-filters="sRGB">
<feFlood flood-opacity="0" result="BackgroundImageFix"/>
<feColorMatrix in="SourceAlpha" type="matrix" values="0 0 0 0 0 0 0 0 0 0 0 0 0 0 0 0 0 0 127 0"/>
<feOffset dy="4"/>
<feGaussianBlur stdDeviation="2"/>
<feColorMatrix type="matrix" values="0 0 0 0 0 0 0 0 0 0 0 0 0 0 0 0 0 0 0.25 0"/>
<feBlend mode="normal" in2="BackgroundImageFix" result="effect1_dropShadow"/>
<feBlend mode="normal" in="SourceGraphic" in2="effect1_dropShadow" result="shape"/>
</filter>
</defs>
</svg>
